<svg xmlns="http://www.w3.org/2000/svg" viewBox="0 0 900 247.5"><defs><style>.cls-1{fill:#111;}.cls-2{fill:#fff;}.cls-3{fill:#0018c4;}</style></defs><g id="Camada_2" data-name="Camada 2"><g id="Camada_1-2" data-name="Camada 1"><rect class="cls-1" width="900" height="247.5" rx="32.65"/><path class="cls-2" d="M125.35,163.7,96.1,121.86h-9V163.7H67.78V63.35h33.51c15.72,0,31.3,10.23,31.3,29.26a27.12,27.12,0,0,1-16.52,25.48l33.19,45.61ZM98.14,79.87h-11v26.42h11c7.55,0,14.94-4.09,14.94-13.21C113.08,84.11,105.85,79.87,98.14,79.87Z"/><path class="cls-2" d="M216.11,123.91,207,133H168.13c.63,7.39,8.81,16.83,23.13,16.83,8.33,0,15.41-2.36,20.29-5.66l-1.89,17c-5.35,2.68-12.58,4.57-21.86,4.57-21.08,0-38.85-15.1-38.85-37.75,0-23.75,17.77-37.59,36.33-37.59,19.66,0,31.3,13.84,31.3,27.84A32.24,32.24,0,0,1,216.11,123.91Zm-30.52-18.72c-7.7,0-15.41,6.13-17,14.31h29.88c0-.63.16-1.1.16-1.73A13,13,0,0,0,185.59,105.19Z"/><path class="cls-2" d="M275.72,163.7V118.87c0-6.29-3.93-12.26-13.53-12.26-9.12,0-14.15,6-14.15,12.58V163.7H229.32V92.45h17v9.44h.16c3-6.92,10.06-11.33,22-11.33,15.57,0,25.95,9.28,25.95,24.7V163.7Z"/><path class="cls-2" d="M360.5,166.06a14.91,14.91,0,0,1-11.17-10.22c-3.3,7.08-10.54,9.91-18.87,9.91-13.37,0-23.44-9.76-23.44-22.81,0-13.37,10.86-21.71,23.91-23l15.57-1.42V115.1c0-5.35-3.77-9.44-12.58-9.44a39.48,39.48,0,0,0-19.82,5.66l-3.46-14.78c6.13-3.93,15.1-6.13,24.22-6.13,17.46,0,29.73,8.8,29.73,25.79v26.11c0,7.39,3.46,11.32,8.49,12.74Zm-14-34.29-11.17.95c-7.55.62-10.69,5.5-10.69,10.22a8.41,8.41,0,0,0,8.81,8.34,12.87,12.87,0,0,0,13.05-13.22Z"/><path class="cls-2" d="M424.68,107.55H403.91v32.24c0,7.24,3.78,9.75,10.7,9.75a17.29,17.29,0,0,0,6.13-.94l-1.57,14.47a23.93,23.93,0,0,1-9.28,1.57c-14.47,0-24.38-7.86-24.38-21.86V107.55H372.46V92.45h13.05V77.67l18.4-8V92.45H428Z"/><path class="cls-2" d="M470.92,165.75c-21.39,0-38.38-15.26-38.38-37.6,0-22.49,17-37.74,38.38-37.74,21.23,0,38.22,15.25,38.22,37.74C509.14,150.49,492.31,165.75,470.92,165.75Zm0-58.83c-10.54,0-19.66,8.81-19.66,21.55,0,12.58,9.12,21.39,19.66,21.39s19.66-8.81,19.66-21.39C490.58,115.73,481.46,106.92,470.92,106.92Z"/><path class="cls-3" d="M559,163.7V63.35h19.82v83.84h41V163.7Z"/><path class="cls-3" d="M692.7,123.91,683.58,133H644.73c.62,7.39,8.8,16.83,23.12,16.83,8.33,0,15.41-2.36,20.29-5.66l-1.89,17c-5.35,2.68-12.58,4.57-21.86,4.57-21.08,0-38.85-15.1-38.85-37.75,0-23.75,17.77-37.59,36.33-37.59,19.66,0,31.3,13.84,31.3,27.84A32.24,32.24,0,0,1,692.7,123.91Zm-30.52-18.72c-7.7,0-15.41,6.13-17,14.31h29.88c0-.63.16-1.1.16-1.73A13,13,0,0,0,662.18,105.19Z"/><path class="cls-3" d="M755.14,166.06A14.88,14.88,0,0,1,744,155.84c-3.31,7.08-10.54,9.91-18.88,9.91-13.37,0-23.43-9.76-23.43-22.81,0-13.37,10.85-21.71,23.9-23l15.58-1.42V115.1c0-5.35-3.78-9.44-12.59-9.44a39.44,39.44,0,0,0-19.81,5.66l-3.47-14.78c6.14-3.93,15.1-6.13,24.23-6.13,17.46,0,29.72,8.8,29.72,25.79v26.11c0,7.39,3.46,11.32,8.5,12.74Zm-14-34.29-11.17.95c-7.55.62-10.7,5.5-10.7,10.22a8.41,8.41,0,0,0,8.81,8.34,12.87,12.87,0,0,0,13.06-13.22Z"/><path class="cls-3" d="M795.88,166.53c-9.59-.94-19.34-7.08-19.34-22.49V51.71H795.1v90a10.41,10.41,0,0,0,9.59,10.7Z"/><path class="cls-2" d="M824.82,165.75c-3.61,0-11.32-7.55-11.32-11.33,0-3.46,7.55-11.17,11.32-11.17,3.62,0,11.33,7.55,11.33,11.17S828.6,165.75,824.82,165.75Z"/></g></g></svg>