<?xml version="1.0" encoding="utf-8"?>
<!-- Generator: Adobe Illustrator 26.0.2, SVG Export Plug-In . SVG Version: 6.00 Build 0)  -->
<svg version="1.1" id="Camada_1" xmlns="http://www.w3.org/2000/svg" xmlns:xlink="http://www.w3.org/1999/xlink" x="0px" y="0px"
	 viewBox="0 0 1000 600" style="enable-background:new 0 0 1000 600;" xml:space="preserve">
<style type="text/css">
	.st0{fill:#111111;}
	.st1{fill:#FFFFFF;}
	.st2{fill:#0018C4;}
</style>
<path class="st0" d="M917.14,423.48H82.43c-18.03,0-32.65-14.62-32.65-32.65V208.63c0-18.03,14.62-32.65,32.65-32.65h834.71
	c18.03,0,32.65,14.62,32.65,32.65v182.21C949.79,408.86,935.17,423.48,917.14,423.48z"/>
<g>
	<path class="st1" d="M175.14,339.68l-29.26-41.84h-8.97v41.84h-19.35V239.33h33.5c15.73,0,31.3,10.22,31.3,29.26
		c0,12.58-7.39,21.55-16.52,25.48l33.19,45.61H175.14z M147.93,255.85h-11.01v26.42h11.01c7.55,0,14.94-4.09,14.94-13.21
		C162.87,260.09,155.64,255.85,147.93,255.85z"/>
	<path class="st1" d="M265.9,299.89l-9.12,9.12h-38.85c0.63,7.39,8.81,16.83,23.12,16.83c8.34,0,15.41-2.36,20.29-5.66l-1.89,16.99
		c-5.35,2.67-12.58,4.56-21.86,4.56c-21.08,0-38.85-15.1-38.85-37.75c0-23.75,17.77-37.59,36.33-37.59
		c19.66,0,31.3,13.84,31.3,27.84C266.37,296.11,266.21,298.31,265.9,299.89z M235.38,281.17c-7.71,0-15.41,6.13-16.99,14.31h29.88
		c0-0.63,0.16-1.1,0.16-1.73C248.44,287.78,243.25,281.17,235.38,281.17z"/>
	<path class="st1" d="M325.51,339.68v-44.83c0-6.29-3.93-12.27-13.53-12.27c-9.12,0-14.16,5.98-14.16,12.58v44.51h-18.72v-71.25
		h16.99v9.44h0.16c2.99-6.92,10.07-11.32,22.02-11.32c15.57,0,25.95,9.28,25.95,24.69v48.44H325.51z"/>
	<path class="st1" d="M410.29,342.04c-4.56-0.94-9.59-4.56-11.17-10.22c-3.3,7.08-10.54,9.91-18.87,9.91
		c-13.37,0-23.44-9.75-23.44-22.81c0-13.37,10.85-21.71,23.91-22.96l15.57-1.42v-3.46c0-5.35-3.77-9.44-12.58-9.44
		c-6.92,0-14.63,2.36-19.82,5.66l-3.46-14.78c6.13-3.93,15.1-6.13,24.22-6.13c17.46,0,29.73,8.81,29.73,25.79v26.11
		c0,7.39,3.46,11.33,8.49,12.74L410.29,342.04z M396.29,307.75l-11.17,0.94c-7.55,0.63-10.7,5.5-10.7,10.22
		c0,4.4,3.46,8.34,8.81,8.34c7.08,0,13.05-5.35,13.05-13.21V307.75z"/>
	<path class="st1" d="M474.46,283.53H453.7v32.24c0,7.23,3.77,9.75,10.7,9.75c2.52,0,4.4-0.31,6.13-0.94l-1.57,14.47
		c-2.04,0.94-5.5,1.57-9.28,1.57c-14.47,0-24.38-7.86-24.38-21.86v-35.23h-13.06v-15.1h13.06v-14.78l18.4-8.02v22.81h24.06
		L474.46,283.53z"/>
	<path class="st1" d="M520.71,341.73c-21.39,0-38.38-15.26-38.38-37.59c0-22.49,16.99-37.75,38.38-37.75
		c21.23,0,38.22,15.26,38.22,37.75C558.93,326.47,542.1,341.73,520.71,341.73z M520.71,282.9c-10.54,0-19.66,8.81-19.66,21.55
		c0,12.58,9.12,21.39,19.66,21.39s19.66-8.81,19.66-21.39C540.37,291.71,531.25,282.9,520.71,282.9z"/>
	<path class="st2" d="M608.79,339.68V239.33h19.82v83.83h41.05v16.52H608.79z"/>
	<path class="st2" d="M742.49,299.89l-9.12,9.12h-38.85c0.63,7.39,8.81,16.83,23.12,16.83c8.34,0,15.41-2.36,20.29-5.66l-1.89,16.99
		c-5.35,2.67-12.58,4.56-21.86,4.56c-21.08,0-38.85-15.1-38.85-37.75c0-23.75,17.77-37.59,36.33-37.59
		c19.66,0,31.3,13.84,31.3,27.84C742.96,296.11,742.8,298.31,742.49,299.89z M711.97,281.17c-7.71,0-15.41,6.13-16.99,14.31h29.88
		c0-0.63,0.16-1.1,0.16-1.73C725.03,287.78,719.84,281.17,711.97,281.17z"/>
	<path class="st2" d="M804.93,342.04c-4.56-0.94-9.59-4.56-11.17-10.22c-3.3,7.08-10.54,9.91-18.88,9.91
		c-13.37,0-23.44-9.75-23.44-22.81c0-13.37,10.85-21.71,23.91-22.96l15.57-1.42v-3.46c0-5.35-3.78-9.44-12.58-9.44
		c-6.92,0-14.63,2.36-19.82,5.66l-3.46-14.78c6.13-3.93,15.1-6.13,24.22-6.13c17.46,0,29.73,8.81,29.73,25.79v26.11
		c0,7.39,3.46,11.33,8.49,12.74L804.93,342.04z M790.93,307.75l-11.17,0.94c-7.55,0.63-10.7,5.5-10.7,10.22
		c0,4.4,3.46,8.34,8.81,8.34c7.08,0,13.06-5.35,13.06-13.21V307.75z"/>
	<path class="st2" d="M845.67,342.51c-9.59-0.94-19.35-7.08-19.35-22.49v-92.33h18.56v89.97c0,6.13,4.25,10.07,9.59,10.7
		L845.67,342.51z"/>
	<path class="st1" d="M874.61,341.73c-3.62,0-11.33-7.55-11.33-11.33c0-3.46,7.55-11.17,11.33-11.17c3.62,0,11.32,7.55,11.32,11.17
		C885.94,334.02,878.39,341.73,874.61,341.73z"/>
</g>
</svg>
